<svg width="250" height="46" viewBox="0 0 365 46" fill="none" xmlns="http://www.w3.org/2000/svg">
<path d="M6.25 36C4.85 36 4.15 35.3 4.15 33.9V14.85H2.3C0.9 14.85 0.2 14.15 0.2 12.75C0.2 11.35 0.9 10.65 2.3 10.65H4.15V10.45C4.15 7.16666 4.94167 4.74166 6.525 3.175C8.10833 1.59166 10.5333 0.799997 13.8 0.799997H21.9L20.6 6.95L13.8 5C11.7333 5 10.3083 5.38333 9.525 6.15C8.74167 6.91667 8.35 8.35 8.35 10.45V10.65H22.3C23.7 10.65 24.4 11.35 24.4 12.75C24.4 14.15 23.7 14.85 22.3 14.85H8.35V33.9C8.35 35.3 7.65 36 6.25 36ZM22.25 36C20.85 36 20.15 35.3 20.15 33.9V12.75C20.15 11.35 20.85 10.65 22.25 10.65C23.65 10.65 24.35 11.35 24.35 12.75V33.9C24.35 35.3 23.65 36 22.25 36ZM21.45 7.075C19.8 7.075 18.975 6.25833 18.975 4.625V3.075C18.975 1.475 19.8 0.674997 21.45 0.674997H22.925C24.475 0.674997 25.25 1.475 25.25 3.075V4.625C25.25 6.25833 24.475 7.075 22.925 7.075H21.45ZM33.193 35.5C32.093 34.65 31.943 33.6667 32.743 32.55L40.143 22.125L33.993 14.1C33.1096 13 33.243 12.0333 34.393 11.2C35.4763 10.3167 36.443 10.4333 37.293 11.55L43.093 19.1L48.793 11.55C49.6263 10.4 50.6096 10.2667 51.743 11.15C52.843 11.9833 52.9763 12.9667 52.143 14.1L45.718 22.55L53.343 32.5C54.1596 33.6167 54.043 34.6 52.993 35.45C51.8596 36.3333 50.8763 36.2 50.043 35.05L42.818 25.625L36.143 35C35.3096 36.15 34.3263 36.3167 33.193 35.5ZM104.876 10.65C108.026 10.65 110.284 11.3917 111.651 12.875C113.034 14.3583 113.726 16.8167 113.726 20.25V33.9C113.726 35.3 113.026 36 111.626 36C110.226 36 109.526 35.3 109.526 33.9V20.25C109.526 18.35 109.159 16.975 108.426 16.125C107.709 15.275 106.526 14.85 104.876 14.85H102.826C100.926 14.85 99.5675 15.275 98.7508 16.125C97.9341 16.975 97.5258 18.35 97.5258 20.25V33.9C97.5258 35.3 96.8258 36 95.4258 36C94.0258 36 93.3258 35.3 93.3258 33.9V20.25C93.3258 18.35 92.9591 16.975 92.2258 16.125C91.5091 15.275 90.3258 14.85 88.6758 14.85H86.6258C84.7258 14.85 83.3674 15.275 82.5508 16.125C81.7341 16.975 81.3258 18.35 81.3258 20.25V33.9C81.3258 35.3 80.6258 36 79.2258 36C77.8258 36 77.1258 35.3 77.1258 33.9V12.75C77.1258 11.35 77.8258 10.65 79.2258 10.65C80.6258 10.65 81.3258 11.35 81.3258 12.75V13.9C82.2091 12.75 83.1758 11.925 84.2258 11.425C85.2924 10.9083 86.5591 10.65 88.0258 10.65H88.6758C90.7424 10.65 92.3674 10.9417 93.5508 11.525C94.7341 12.0917 95.6341 13.0167 96.2508 14.3C97.1341 12.9833 98.0674 12.05 99.0508 11.5C100.051 10.9333 101.309 10.65 102.826 10.65H104.876ZM130.31 46C127.893 46 126.085 45.3917 124.885 44.175C123.702 42.975 123.11 41.1667 123.11 38.75C123.11 37.35 123.81 36.65 125.21 36.65C126.61 36.65 127.31 37.35 127.31 38.75C127.31 40 127.493 40.8167 127.86 41.2C128.243 41.6 129.06 41.8 130.31 41.8H140.01C141.243 41.8 142.052 41.6 142.435 41.2C142.818 40.8167 143.01 40 143.01 38.75V32.4C142.01 33.9 140.843 34.875 139.51 35.325C138.193 35.775 136.76 36 135.21 36H132.76C129.46 36 127.027 35.2167 125.46 33.65C123.893 32.0833 123.11 29.6667 123.11 26.4V12.75C123.11 11.35 123.81 10.65 125.21 10.65C126.61 10.65 127.31 11.35 127.31 12.75V26.4C127.31 28.5 127.685 29.925 128.435 30.675C129.202 31.425 130.643 31.8 132.76 31.8H135.21C137.943 31.8 139.927 31.3583 141.16 30.475C142.393 29.575 143.01 28.2167 143.01 26.4V12.75C143.01 11.35 143.71 10.65 145.11 10.65C146.51 10.65 147.21 11.35 147.21 12.75V38.75C147.21 41.1667 146.61 42.975 145.41 44.175C144.21 45.3917 142.41 46 140.01 46H130.31ZM179.267 36C177.151 36 175.476 35.5667 174.242 34.7C173.009 33.8167 172.217 32.5 171.867 30.75C171.751 30.05 171.884 29.5 172.267 29.1C172.667 28.7 173.217 28.5 173.917 28.5C174.601 28.5 175.092 28.675 175.392 29.025C175.709 29.3583 175.967 29.8667 176.167 30.55C176.367 31.05 176.701 31.3833 177.167 31.55C177.651 31.7167 178.351 31.8 179.267 31.8H187.467C188.767 31.8 189.642 31.5917 190.092 31.175C190.542 30.7417 190.767 29.85 190.767 28.5C190.767 27.1667 190.542 26.2833 190.092 25.85C189.642 25.4167 188.767 25.2 187.467 25.2H179.417C177.017 25.2 175.209 24.5917 173.992 23.375C172.776 22.1583 172.167 20.35 172.167 17.95C172.167 15.5 172.759 13.675 173.942 12.475C175.142 11.2583 176.967 10.65 179.417 10.65H187.217C191.134 10.65 193.451 12.3 194.167 15.6C194.301 16.3 194.167 16.8417 193.767 17.225C193.367 17.6083 192.817 17.8 192.117 17.8C191.467 17.8 190.984 17.6333 190.667 17.3C190.351 16.95 190.101 16.4667 189.917 15.85C189.717 15.45 189.409 15.1833 188.992 15.05C188.592 14.9167 188.001 14.85 187.217 14.85H179.417C178.151 14.85 177.326 15.0417 176.942 15.425C176.559 15.8083 176.367 16.65 176.367 17.95C176.367 19.15 176.567 19.9583 176.967 20.375C177.384 20.7917 178.201 21 179.417 21H187.467C189.967 21 191.842 21.625 193.092 22.875C194.342 24.125 194.967 26 194.967 28.5C194.967 31.0167 194.342 32.9 193.092 34.15C191.842 35.3833 189.967 36 187.467 36H179.267ZM205.284 6.55C203.7 6.55 202.909 5.75 202.909 4.15V2.675C202.909 1.10833 203.7 0.324999 205.284 0.324999H206.734C208.25 0.324999 209.009 1.10833 209.009 2.675V4.15C209.009 5.75 208.25 6.55 206.734 6.55H205.284ZM205.984 36C204.584 36 203.884 35.3 203.884 33.9V12.75C203.884 11.35 204.584 10.65 205.984 10.65C207.384 10.65 208.084 11.35 208.084 12.75V33.9C208.084 35.3 207.384 36 205.984 36ZM220.583 36C219.183 36 218.483 35.3 218.483 33.9V12.75C218.483 11.35 219.183 10.65 220.583 10.65C221.983 10.65 222.683 11.35 222.683 12.75V13.575C224.45 11.625 227.05 10.65 230.483 10.65H231.883C235.217 10.65 237.683 11.45 239.283 13.05C240.883 14.65 241.683 17.1167 241.683 20.45V33.9C241.683 35.3 240.983 36 239.583 36C238.183 36 237.483 35.3 237.483 33.9V20.45C237.483 18.2667 237.083 16.7917 236.283 16.025C235.5 15.2417 234.033 14.85 231.883 14.85H230.483C228.483 14.85 226.742 15.0833 225.258 15.55C223.775 16 222.917 16.7167 222.683 17.7V33.9C222.683 35.3 221.983 36 220.583 36ZM253.689 36C252.289 36 251.589 35.3 251.589 33.9V2.9C251.589 1.5 252.289 0.799997 253.689 0.799997C255.089 0.799997 255.789 1.5 255.789 2.9V21.675L267.689 11.45C268.755 10.5333 269.739 10.6 270.639 11.65C271.555 12.7167 271.489 13.7 270.439 14.6L261.314 22.475L270.039 32.4C270.972 33.4833 270.922 34.4667 269.889 35.35C268.822 36.2667 267.822 36.2 266.889 35.15L258.114 25.25L255.789 27.25V33.9C255.789 35.3 255.089 36 253.689 36ZM294.802 46C293.402 46 292.702 45.3 292.702 43.9V12.75C292.702 11.35 293.402 10.65 294.802 10.65C296.202 10.65 296.902 11.35 296.902 12.75V13.375C297.802 12.475 298.91 11.8 300.227 11.35C301.56 10.8833 303.052 10.65 304.702 10.65H306.602C309.935 10.65 312.402 11.45 314.002 13.05C315.602 14.65 316.402 17.1167 316.402 20.45V26.2C316.402 29.5167 315.602 31.9833 314.002 33.6C312.402 35.2 309.935 36 306.602 36H296.902V43.9C296.902 45.3 296.202 46 294.802 46ZM296.902 31.8H306.602C308.785 31.8 310.26 31.4083 311.027 30.625C311.81 29.8417 312.202 28.3667 312.202 26.2V20.45C312.202 18.2667 311.81 16.7917 311.027 16.025C310.26 15.2417 308.785 14.85 306.602 14.85H304.702C302.619 14.85 300.819 15.1 299.302 15.6C297.785 16.1 296.985 16.8917 296.902 17.975V31.8ZM333.162 36C330.612 36 328.712 35.375 327.462 34.125C326.229 32.8583 325.612 30.95 325.612 28.4V2.9C325.612 1.5 326.312 0.799997 327.712 0.799997C329.112 0.799997 329.812 1.5 329.812 2.9V28.4C329.812 29.75 330.029 30.6583 330.462 31.125C330.912 31.575 331.812 31.8 333.162 31.8C334.595 31.8 335.312 32.5 335.312 33.9C335.362 35.3 334.645 36 333.162 36ZM348.701 36C346.584 36 344.909 35.5667 343.676 34.7C342.442 33.8167 341.651 32.5 341.301 30.75C341.184 30.05 341.317 29.5 341.701 29.1C342.101 28.7 342.651 28.5 343.351 28.5C344.034 28.5 344.526 28.675 344.826 29.025C345.142 29.3583 345.401 29.8667 345.601 30.55C345.801 31.05 346.134 31.3833 346.601 31.55C347.084 31.7167 347.784 31.8 348.701 31.8H356.901C358.201 31.8 359.076 31.5917 359.526 31.175C359.976 30.7417 360.201 29.85 360.201 28.5C360.201 27.1667 359.976 26.2833 359.526 25.85C359.076 25.4167 358.201 25.2 356.901 25.2H348.851C346.451 25.2 344.642 24.5917 343.426 23.375C342.209 22.1583 341.601 20.35 341.601 17.95C341.601 15.5 342.192 13.675 343.376 12.475C344.576 11.2583 346.401 10.65 348.851 10.65H356.651C360.567 10.65 362.884 12.3 363.601 15.6C363.734 16.3 363.601 16.8417 363.201 17.225C362.801 17.6083 362.251 17.8 361.551 17.8C360.901 17.8 360.417 17.6333 360.101 17.3C359.784 16.95 359.534 16.4667 359.351 15.85C359.151 15.45 358.842 15.1833 358.426 15.05C358.026 14.9167 357.434 14.85 356.651 14.85H348.851C347.584 14.85 346.759 15.0417 346.376 15.425C345.992 15.8083 345.801 16.65 345.801 17.95C345.801 19.15 346.001 19.9583 346.401 20.375C346.817 20.7917 347.634 21 348.851 21H356.901C359.401 21 361.276 21.625 362.526 22.875C363.776 24.125 364.401 26 364.401 28.5C364.401 31.0167 363.776 32.9 362.526 34.15C361.276 35.3833 359.401 36 356.901 36H348.701Z" fill="#235347"/>
</svg>
